<?xml version="1.0" encoding="UTF-8" standalone="no"?>
<!-- Created with Inkscape (http://www.inkscape.org/) -->

<svg
   xmlns:dc="http://purl.org/dc/elements/1.1/"
   xmlns:cc="http://creativecommons.org/ns#"
   xmlns:rdf="http://www.w3.org/1999/02/22-rdf-syntax-ns#"
   xmlns:svg="http://www.w3.org/2000/svg"
   xmlns="http://www.w3.org/2000/svg"
   xmlns:sodipodi="http://sodipodi.sourceforge.net/DTD/sodipodi-0.dtd"
   xmlns:inkscape="http://www.inkscape.org/namespaces/inkscape"
   version="1.1"
   id="svg2"
   xml:space="preserve"
   width="65.895859"
   height="160.58865"
   viewBox="0 0 65.895859 160.58865"
   sodipodi:docname="hoja1.svg"
   inkscape:version="0.92.5 (2060ec1f9f, 2020-04-08)"><metadata
     id="metadata8"><rdf:RDF><cc:Work
         rdf:about=""><dc:format>image/svg+xml</dc:format><dc:type
           rdf:resource="http://purl.org/dc/dcmitype/StillImage" /><dc:title></dc:title></cc:Work></rdf:RDF></metadata><defs
     id="defs6" /><sodipodi:namedview
     pagecolor="#ffffff"
     bordercolor="#666666"
     borderopacity="1"
     objecttolerance="10"
     gridtolerance="10"
     guidetolerance="10"
     inkscape:pageopacity="0"
     inkscape:pageshadow="2"
     inkscape:window-width="1150"
     inkscape:window-height="1054"
     id="namedview4"
     showgrid="false"
     inkscape:zoom="1.416"
     inkscape:cx="84.612685"
     inkscape:cy="-49.725565"
     inkscape:window-x="0"
     inkscape:window-y="0"
     inkscape:window-maximized="0"
     inkscape:current-layer="g10" /><g
     id="g10"
     inkscape:groupmode="layer"
     inkscape:label="ink_ext_XXXXXX"
     transform="matrix(1.3333333,0,0,-1.3333333,-29.794404,652.86666)"><path
       inkscape:connector-curvature="0"
       id="path40"
       style="fill:#000000;fill-opacity:1;fill-rule:nonzero;stroke:none;stroke-width:0.1"
       d="m 71.752384,369.24251 c -0.1055,0.087 -0.2364,0.156 -0.3125,0.264 -1.4414,2.037 -2.6785,4.2 -3.9153,6.364 -0.9121,1.595 -1.6531,3.273 -2.439,4.929 -0.6457,1.358 -1.3215,2.703 -1.8274,4.124 -0.0613,0.174 -0.1593,0.344 -0.2746,0.489 -1.2801,1.625 -2.5445,3.262 -3.9922,4.75 -0.95,0.977 -1.83,2.021 -2.7371,3.04 -1.0637,1.195 -2.1308,2.387 -3.364,3.416 -0.1809,0.15 -0.3618,0.301 -0.5532,0.437 -0.3902,0.277 -0.814,0.446 -1.3074,0.464 -1.0449,0.04 -2.0183,0.364 -2.957,0.808 -0.1699,0.081 -0.3289,0.19 -0.5047,0.25 -1.3945,0.472 -2.6281,1.247 -3.8481,2.044 -1.0281,0.671 -1.9546,1.467 -2.7793,2.38 -0.2207,0.244 -0.4507,0.48 -0.6953,0.701 -0.9824,0.891 -1.8074,1.927 -2.5476,3.011 -0.7918,1.16 -1.5321,2.366 -1.9988,3.715 -0.4172,1.2 -0.9426,2.356 -1.5059,3.495 -0.9797,1.984 -1.8109,4.03 -2.4875,6.137 -0.2891,0.9 -0.3992,1.837 -0.5996,2.754 -0.1004,0.46 -0.1895,0.923 -0.2598,1.387 -0.0867,0.568 -0.3398,1.064 -0.5644,1.583 -0.5325,1.225 -1.2715,2.298 -2.1485,3.291 -0.1211,0.137 -0.198,0.313 -0.2937,0.466 0.1863,0.153 0.3738,0.162 0.5437,0.083 0.7246,-0.337 1.459,-0.657 2.1582,-1.042 1.5657,-0.859 3.1867,-1.616 4.7032,-2.564 0.5578,-0.349 1.196,-0.544 1.7363,-0.935 1.8664,-1.349 3.8332,-2.554 5.6797,-3.932 1.175,-0.877 2.1953,-1.921 3.1726,-3.002 1.2973,-1.433 2.4231,-3.005 3.4446,-4.64 0.6211,-0.994 1.1164,-2.068 1.6359,-3.122 0.3113,-0.632 0.5801,-1.286 0.8355,-1.942 0.6743,-1.73 0.895,-3.551 1.0442,-5.383 0.0613,-0.751 0.1211,-1.498 0.2762,-2.239 0.0968,-0.46 0.1925,-0.916 0.3207,-1.369 0.1519,-0.541 0.2546,-1.102 0.3125,-1.66 0.0449,-0.437 0.1648,-0.831 0.4011,-1.187 0.3633,-0.548 0.7305,-1.092 1.2149,-1.551 1.1965,-1.135 2.2273,-2.421 3.3191,-3.652 0.7793,-0.881 1.5727,-1.749 2.3625,-2.619 0.0613,-0.068 0.1453,-0.129 0.2305,-0.158 0.0715,-0.024 0.1621,-0.006 0.2383,0.015 0.0254,0.006 0.0515,0.086 0.0429,0.125 -0.0382,0.183 -0.0754,0.368 -0.1355,0.544 -0.686,2.001 -1.4367,3.977 -2.2387,5.935 -0.7129,1.74 -1.3543,3.509 -1.9976,5.276 -0.4504,1.237 -0.9067,2.47 -1.4348,3.677 -0.3191,0.73 -0.5703,1.495 -0.7871,2.263 -0.5242,1.858 -1.2586,3.643 -1.8699,5.47 -0.134,0.401 -0.3098,0.789 -0.4231,1.195 -0.343,1.233 -0.8855,2.378 -1.4941,3.494 -0.6309,1.157 -1.3028,2.29 -1.9121,3.457 -1.1621,2.229 -2.7246,4.166 -4.3411,6.066 -0.3789,0.446 -0.8679,0.714 -1.4675,0.747 -0.3282,0.017 -0.659,0.066 -0.9856,0.05 -0.616,-0.029 -1.2117,0.089 -1.8179,0.158 -2.5813,0.293 -4.709,1.529 -6.7051,3.078 -1.8469,1.433 -3.2805,3.225 -4.5168,5.188 -1.2078,1.918 -2.2141,3.927 -2.8535,6.113 -0.1985,0.674 -0.4715,1.331 -0.7618,1.973 -0.4687,1.035 -0.7421,2.13 -1.039,3.217 -0.2715,0.996 -0.4668,2.014 -0.6934,3.023 -0.3301,1.466 -0.675,2.93 -0.9804,4.402 -0.1141,0.551 -0.1543,1.118 -0.2,1.68 -0.0461,0.571 -0.1399,1.117 -0.504,1.586 -0.0285,0.037 0.0333,0.154 0.0711,0.224 0.0086,0.017 0.095,0.009 0.1336,-0.01 1.4348,-0.7 2.8633,-1.411 4.302,-2.102 0.8535,-0.41 1.6457,-0.919 2.3808,-1.503 0.554,-0.441 1.1165,-0.869 1.7266,-1.218 1.5125,-0.864 2.9192,-1.888 4.3594,-2.86 0.8562,-0.579 1.6941,-1.187 2.5195,-1.81 0.5625,-0.424 1.084,-0.893 1.5403,-1.442 0.6316,-0.759 1.3132,-1.477 1.9695,-2.216 0.2187,-0.245 0.4621,-0.479 0.6328,-0.756 1.1406,-1.856 2.0449,-3.803 2.3867,-5.985 0.2625,-1.677 0.418,-3.359 0.4856,-5.054 0.0242,-0.615 0.0132,-1.218 -0.1079,-1.824 -0.0828,-0.414 -0.0996,-0.841 -0.1542,-1.26 -0.0711,-0.544 0.0609,-1.025 0.4152,-1.446 0.1515,-0.179 0.291,-0.371 0.4543,-0.539 0.9637,-0.994 1.5918,-2.206 2.2305,-3.41 0.575,-1.084 1.2871,-2.074 2.0308,-3.043 0.0305,-0.041 0.1547,-0.021 0.2309,-0.008 0.0222,0.004 0.0437,0.083 0.0437,0.128 0.0012,0.093 0.002,0.191 -0.0222,0.278 -0.9415,3.301 -1.7446,6.637 -2.5332,9.975 -0.6016,1.737 -0.7661,3.584 -1.3477,5.328 -0.1477,0.44 -0.1621,0.925 -0.2523,1.387 -0.1161,0.599 -0.1969,1.211 -0.3797,1.791 -0.325,1.034 -0.5848,2.082 -0.8235,3.136 -0.1773,0.784 -0.4402,1.531 -0.7957,2.255 -0.8703,1.771 -1.7187,3.554 -2.5722,5.334 -0.4266,0.892 -0.7637,1.819 -1.0957,2.748 -0.1883,0.531 -0.409,1.051 -0.6141,1.577 -0.1098,0.277 -0.3125,0.464 -0.5781,0.586 -0.1282,0.058 -0.2602,0.111 -0.3957,0.151 -1.3504,0.406 -2.6321,1.007 -3.9727,1.438 -1.6746,0.539 -3.1543,1.453 -4.6355,2.367 -0.5696,0.351 -0.9954,0.859 -1.4485,1.336 -1.0398,1.093 -1.9265,2.31 -2.8222,3.52 -0.5079,0.686 -0.8789,1.437 -1.1856,2.234 -0.4062,1.058 -0.7019,2.144 -0.948,3.244 -0.0918,0.411 -0.1352,0.84 -0.1387,1.26 -0.0141,1.274 -0.2133,2.531 -0.3488,3.792 -0.1121,1.032 -0.2032,2.055 -0.0977,3.093 0.1035,1.029 0.127,2.066 0.2461,3.093 0.1238,1.078 0.3777,2.127 0.9402,3.081 0.1411,0.239 0.2512,0.512 0.3059,0.783 0.1035,0.516 0.3047,0.982 0.5676,1.433 0.1648,0.283 0.2832,0.593 0.4207,0.891 0.1379,0.299 0.2304,0.628 0.4179,0.89 0.2825,0.394 0.4305,0.825 0.5411,1.282 0.0312,0.13 0.2351,0.186 0.3504,0.101 0.1898,-0.14 0.3671,-0.295 0.5625,-0.424 0.1554,-0.101 0.3222,-0.195 0.4972,-0.255 1.7805,-0.614 2.7227,-1.107 4.0742,-2.152 0.1485,-0.114 0.3125,-0.225 0.42,-0.373 0.4211,-0.578 0.9687,-1.016 1.4992,-1.484 0.739,-0.653 1.4324,-1.36 2.1355,-2.053 0.1992,-0.198 0.3699,-0.425 0.541,-0.65 0.4825,-0.638 0.9668,-1.275 1.4329,-1.925 0.2457,-0.343 0.4648,-0.707 0.6777,-1.072 0.6394,-1.096 1.2644,-2.201 1.9058,-3.296 0.8821,-1.509 1.5676,-3.103 2.0832,-4.772 0.1524,-0.494 0.3106,-0.987 0.461,-1.481 0.0808,-0.27 0.1711,-0.538 0.2246,-0.814 0.3059,-1.573 0.5422,-3.15 0.3723,-4.764 -0.084,-0.795 -0.1086,-1.596 -0.1457,-2.394 -0.0411,-0.868 -0.3516,-1.653 -0.7383,-2.41 -0.2141,-0.419 -0.4676,-0.816 -0.7031,-1.224 -0.2129,-0.369 -0.4668,-0.7 -0.7958,-0.979 -0.2121,-0.18 -0.4015,-0.394 -0.5714,-0.617 -0.3047,-0.398 -0.3914,-0.836 -0.2121,-1.327 0.1457,-0.396 0.2687,-0.804 0.3578,-1.215 0.1902,-0.88 0.4578,-1.727 0.9507,-2.488 0.5266,-1.464 1.3098,-2.813 1.9125,-4.242 0.5848,-1.387 1.0653,-2.814 1.4813,-4.261 0.3113,-1.084 0.6379,-2.16 1.0977,-3.196 0.2656,-0.598 0.4558,-1.233 0.6418,-1.864 0.3179,-1.082 0.6062,-2.172 0.905,-3.26 0.2239,-0.816 0.4461,-1.633 0.666,-2.45 0.0618,-0.227 0.0801,-0.469 0.1668,-0.685 0.459,-1.141 0.7036,-2.338 0.9747,-3.531 0.0832,-0.366 0.214,-0.721 0.3417,-1.075 0.2727,-0.753 0.5293,-1.505 0.6313,-2.307 0.0406,-0.322 0.1426,-0.647 0.2754,-0.945 0.368,-0.822 0.5816,-1.689 0.7832,-2.559 0.2851,-1.236 0.5879,-2.469 0.7801,-3.727 0.1465,-0.956 0.1777,-0.98 0.7968,-1.908 0.168,0.136 0.1329,0.326 0.0918,0.484 -0.1336,0.506 -0.155,1.014 -0.1648,1.534 -0.0332,1.696 -0.2883,3.372 -0.4855,5.054 -0.0657,0.559 -0.1204,1.123 -0.1426,1.685 -0.1192,2.87 0.0117,5.738 0.1426,8.604 0.0109,0.235 0.0312,0.471 0.0156,0.705 -0.0313,0.482 -0.1809,0.919 -0.5301,1.273 -0.3957,0.402 -0.7758,0.821 -1.1809,1.213 -1.2675,1.224 -2.2429,2.647 -3.0207,4.225 -0.7339,1.49 -1.2097,3.056 -1.5484,4.672 -0.0195,0.092 -0.048,0.185 -0.0488,0.278 -0.0176,1.129 -0.291,2.238 -0.27,3.371 0.0071,0.376 -0.041,0.752 -0.0386,1.128 0.0047,1.129 0.0078,2.258 0.0379,3.387 0.03,1.137 0.2695,2.239 0.6632,3.304 0.5543,1.499 1.1231,2.992 1.6891,4.486 0.2199,0.577 0.507,1.102 1.0063,1.505 0.2488,0.201 0.4265,0.494 0.6238,0.755 0.198,0.264 0.3586,0.557 0.573,0.804 0.4922,0.567 1.0703,1.071 1.4946,1.683 0.3992,0.576 0.7097,1.216 1.1757,1.752 0.3075,0.355 0.6208,0.706 0.9161,1.072 0.323,0.403 0.6765,0.793 0.9246,1.24 0.2226,0.402 0.3144,0.877 0.4785,1.314 0.0207,0.055 0.1316,0.086 0.207,0.106 0.0321,0.009 0.093,-0.03 0.1192,-0.064 0.0847,-0.11 0.175,-0.222 0.2363,-0.346 0.1687,-0.336 0.3164,-0.683 0.4863,-1.018 0.2988,-0.586 0.6074,-1.167 0.9121,-1.749 0.0867,-0.166 0.2129,-0.321 0.2617,-0.498 0.3235,-1.184 0.9122,-2.265 1.2969,-3.426 0.3836,-1.16 0.8313,-2.299 1.2227,-3.457 0.1804,-0.532 0.341,-1.073 0.3508,-1.651 0.0039,-0.273 0.1035,-0.549 0.1816,-0.818 0.2098,-0.722 0.4187,-1.445 0.652,-2.16 0.2355,-0.718 0.3976,-1.451 0.507,-2.197 0.1648,-1.125 0.1941,-2.245 -0.1043,-3.357 -0.2445,-0.907 -0.4692,-1.821 -0.7016,-2.732 -0.0926,-0.364 -0.1804,-0.729 -0.2781,-1.092 -0.0598,-0.226 -0.1074,-0.461 -0.2031,-0.673 -0.4461,-0.984 -0.834,-1.995 -1.4063,-2.921 -0.6445,-1.045 -1.1054,-2.176 -1.4961,-3.337 -0.1047,-0.312 -0.2168,-0.623 -0.3601,-0.918 -0.6184,-1.271 -1.3266,-2.49 -2.1399,-3.647 -0.1609,-0.23 -0.3222,-0.489 -0.5476,-0.637 -0.5317,-0.351 -0.6914,-0.86 -0.7571,-1.44 -0.1933,-1.729 -0.4558,-3.451 -0.4355,-5.2 0.009,-0.751 -0.0742,-1.503 -0.1035,-2.255 -0.0242,-0.61 -0.0215,-1.222 -0.0496,-1.832 -0.0742,-1.603 0.034,-3.2 0.1851,-4.79 0.2055,-2.152 0.3547,-4.314 0.8469,-6.428 0.1063,-0.458 0.2402,-0.908 0.3633,-1.362 0.0371,-0.136 0.114,-0.269 0.1164,-0.404 0.0137,-0.865 0.3562,-1.648 0.5801,-2.462 0.2617,-0.952 0.457,-1.923 0.7527,-2.864 0.4504,-1.435 0.9492,-2.855 1.4512,-4.272 0.5176,-1.462 1.0437,-2.921 1.6047,-4.368 0.6265,-1.622 1.3004,-3.226 1.9461,-4.84 0.5925,-1.484 1.1828,-2.969 1.7585,-4.459 0.1868,-0.481 0.354,-0.974 0.4778,-1.474 0.1484,-0.6 0.4043,-1.152 0.6633,-1.706 0.2593,-0.553 0.5183,-1.106 0.7925,-1.651 0.0813,-0.16 0.2161,-0.293 0.3821,-0.515 0.0351,0.224 0.0996,0.361 0.0676,0.469 -0.3489,1.179 -0.5043,2.384 -0.636,3.605 -0.1394,1.305 -0.2644,2.622 -0.6543,3.891 -0.0957,0.311 -0.118,0.647 -0.1633,0.973 -0.2593,1.865 -0.4336,3.738 -0.4754,5.622 -0.0234,1.034 -0.0671,2.066 -0.1921,3.097 -0.1028,0.838 -0.0801,1.691 -0.1172,2.538 -0.0168,0.375 -0.0325,0.752 -0.0715,1.126 -0.0332,0.331 -0.1277,0.652 -0.3469,0.911 -0.4844,0.575 -0.9266,1.181 -1.4859,1.695 -1.3696,1.256 -2.4242,2.752 -3.1535,4.457 -0.9532,2.23 -1.4485,4.568 -1.4793,6.996 -0.0137,1.035 0.0132,2.07 0.0293,3.106 0.0293,1.944 0.4199,3.823 1.0332,5.662 0.0742,0.222 0.1171,0.454 0.1777,0.681 0.0613,0.227 0.1062,0.461 0.1949,0.677 0.3945,0.954 0.7856,1.911 1.2094,2.852 0.4656,1.035 1.1336,1.948 1.8164,2.847 0.3406,0.449 0.6687,0.909 1.0254,1.345 0.4461,0.546 0.8719,1.119 1.3863,1.593 0.5051,0.466 0.8528,0.991 1.0676,1.629 0.0281,0.081 0.1125,0.144 0.2043,0.258 0.3855,-0.602 0.6629,-1.241 0.9684,-1.865 0.1859,-0.379 0.3417,-0.775 0.5441,-1.145 0.3641,-0.667 0.6855,-1.341 0.6719,-2.126 -8e-4,-0.092 0.0047,-0.2 0.0515,-0.274 0.3867,-0.626 0.3696,-1.35 0.5129,-2.034 0.1555,-0.742 0.4746,-1.427 0.7813,-2.111 0.1347,-0.302 0.2785,-0.59 0.3496,-0.917 0.0488,-0.225 0.1316,-0.463 0.2676,-0.644 0.4961,-0.662 0.6875,-1.443 0.8789,-2.214 0.3867,-1.552 0.7414,-3.113 0.9582,-4.699 0.166,-1.212 0.3101,-2.426 0.4558,-3.641 0.1934,-1.62 -0.0664,-3.186 -0.5918,-4.717 -0.1379,-0.4 -0.2937,-0.794 -0.4375,-1.191 -0.4472,-1.242 -0.9734,-2.446 -1.6445,-3.586 -0.3574,-0.608 -0.6863,-1.233 -1.0637,-1.83 -0.5777,-0.915 -1.2058,-1.795 -1.9793,-2.562 -0.2675,-0.265 -0.5312,-0.533 -0.7929,-0.804 -0.2715,-0.281 -0.4317,-0.611 -0.4258,-1.011 0.0058,-0.377 -0.0098,-0.754 0.0039,-1.13 0.0383,-1.081 0.0461,-2.166 0.1387,-3.243 0.1054,-1.221 0.0527,-2.443 0.1242,-3.662 0.0332,-0.562 0.0906,-1.124 0.157,-1.683 0.1277,-1.074 0.3457,-2.132 0.5691,-3.19 0.2043,-0.965 0.3071,-1.951 0.4282,-2.931 0.0515,-0.42 0.1043,-0.83 0.241,-1.239 0.209,-0.622 0.3547,-1.262 0.4512,-1.918 0.1718,-1.166 0.5586,-2.283 0.9394,-3.394 0.5344,-1.558 1.1887,-3.067 2.009,-4.502 0.793,-1.387 1.4352,-2.856 2.2969,-4.208 0.0586,-0.09 -0.0078,-0.261 -0.0168,-0.395 l 0.0254,0.034" /></g></svg>