<?xml version="1.0" encoding="UTF-8" standalone="no"?>
<!-- Created with Inkscape (http://www.inkscape.org/) -->

<svg
   xmlns:dc="http://purl.org/dc/elements/1.1/"
   xmlns:cc="http://creativecommons.org/ns#"
   xmlns:rdf="http://www.w3.org/1999/02/22-rdf-syntax-ns#"
   xmlns:svg="http://www.w3.org/2000/svg"
   xmlns="http://www.w3.org/2000/svg"
   xmlns:sodipodi="http://sodipodi.sourceforge.net/DTD/sodipodi-0.dtd"
   xmlns:inkscape="http://www.inkscape.org/namespaces/inkscape"
   version="1.1"
   id="svg2"
   xml:space="preserve"
   width="122.17902"
   height="111.51818"
   viewBox="0 0 122.17902 111.51818"
   sodipodi:docname="hoja3.svg"
   inkscape:version="0.92.5 (2060ec1f9f, 2020-04-08)"><metadata
     id="metadata8"><rdf:RDF><cc:Work
         rdf:about=""><dc:format>image/svg+xml</dc:format><dc:type
           rdf:resource="http://purl.org/dc/dcmitype/StillImage" /><dc:title></dc:title></cc:Work></rdf:RDF></metadata><defs
     id="defs6" /><sodipodi:namedview
     pagecolor="#ffffff"
     bordercolor="#666666"
     borderopacity="1"
     objecttolerance="10"
     gridtolerance="10"
     guidetolerance="10"
     inkscape:pageopacity="0"
     inkscape:pageshadow="2"
     inkscape:window-width="1150"
     inkscape:window-height="1054"
     id="namedview4"
     showgrid="false"
     inkscape:zoom="1.416"
     inkscape:cx="15.318157"
     inkscape:cy="-103.67044"
     inkscape:window-x="0"
     inkscape:window-y="0"
     inkscape:window-maximized="0"
     inkscape:current-layer="g10" /><g
     id="g10"
     inkscape:groupmode="layer"
     inkscape:label="ink_ext_XXXXXX"
     transform="matrix(1.3333333,0,0,-1.3333333,-45.704,243.05708)"><path
       inkscape:connector-curvature="0"
       id="path20"
       style="fill:#000000;fill-opacity:1;fill-rule:nonzero;stroke:none;stroke-width:0.1"
       d="m 62.1855,121.289 c 0.3633,0.73 0.7688,1.465 1.0313,2.278 0.2742,0.848 0.6445,1.652 1.2062,2.372 0.3399,0.437 0.568,0.973 0.7879,1.49 0.2207,0.519 0.3899,1.05 0.802,1.472 0.1551,0.159 0.2129,0.412 0.3125,0.624 0.3672,0.786 0.9219,1.388 1.6258,1.906 1.1433,0.839 2.4074,1.459 3.6386,2.139 0.1641,0.091 0.3875,0.123 0.4969,0.254 0.4653,0.553 1.125,0.615 1.7539,0.776 0.7285,0.184 1.4516,0.394 2.177,0.588 0.6855,0.183 1.3742,0.335 2.0859,0.144 0.0449,-0.012 0.0938,-0.011 0.1399,-0.015 0.5601,-0.051 1.1406,0.085 1.6796,-0.13 1.0438,-0.419 2.1258,-0.754 3.0692,-1.398 0.7766,-0.53 1.5566,-1.055 2.3398,-1.575 0.5469,-0.363 1.0684,-0.773 1.7332,-0.922 0.1797,-0.041 0.3594,-0.126 0.5129,-0.229 0.9739,-0.658 1.9422,-1.323 2.9082,-1.992 0.3938,-0.273 0.6825,-0.638 0.9246,-1.05 0.3801,-0.649 0.7969,-1.276 1.1711,-1.928 0.2571,-0.447 0.4903,-0.91 0.6961,-1.382 0.4133,-0.948 0.7856,-1.914 1.2024,-2.859 0.2863,-0.648 0.4992,-1.317 0.709,-1.991 0.3171,-1.014 0.2878,-2.034 0.0871,-3.061 -0.0278,-0.139 -0.0383,-0.281 -0.0793,-0.416 -0.2317,-0.764 -0.5,-1.519 -0.6985,-2.292 -0.1863,-0.727 -0.2945,-1.474 -0.45,-2.209 -0.1953,-0.924 -0.5554,-1.794 -0.8925,-2.672 -0.0672,-0.176 -0.1258,-0.361 -0.2305,-0.514 -0.6692,-0.972 -1.1406,-2.055 -1.7246,-3.076 -0.4473,-0.78 -1.002,-1.479 -1.586,-2.156 -0.2129,-0.247 -0.4636,-0.472 -0.7312,-0.655 -0.852,-0.588 -1.718,-1.154 -2.582,-1.722 -0.2356,-0.155 -0.4946,-0.275 -0.725,-0.437 -1.2489,-0.8819 -2.6227,-1.4451 -4.1336,-1.6959 -1.0176,-0.1692 -2.0325,-0.327 -3.0684,-0.2973 -0.4695,0.0133 -0.9336,0.0434 -1.4023,0.1141 -1.0664,0.1613 -2.1465,0.2269 -3.2129,0.3902 -1.4844,0.227 -2.9715,0.4539 -4.4192,0.8669 -0.6758,0.194 -1.3394,0.43 -1.9961,0.683 -0.2578,0.099 -0.4898,0.279 -0.7105,0.452 -0.2961,0.232 -0.5637,0.499 -0.8535,0.738 -0.2168,0.18 -0.4282,0.406 -0.6821,0.493 -0.4636,0.16 -0.8086,0.458 -1.1543,0.776 -0.1714,0.159 -0.3828,0.274 -0.5671,0.418 -0.3008,0.232 -0.5403,0.499 -0.6805,0.875 -0.1777,0.478 -0.3625,0.975 -0.8379,1.267 -0.3242,0.815 -0.977,1.517 -0.8566,2.486 0.0117,0.092 0.0148,0.195 -0.0165,0.279 -0.3195,0.855 -0.2433,1.766 -0.3769,2.647 -0.1613,1.065 -0.25,2.148 -0.0941,3.232 0.039,0.276 0.0136,0.564 -0.0047,0.846 -0.0313,0.471 -0.0293,0.933 0.1289,1.391 0.0996,0.287 -0.0149,0.57 -0.1985,0.789 -0.2691,0.324 -0.5742,0.617 -0.8648,0.924 -0.4184,0.106 -0.8274,0.212 -1.2375,0.311 -0.1367,0.033 -0.282,0.085 -0.416,0.066 -1.2199,-0.173 -2.4309,0.145 -3.6574,0.025 -1.1192,-0.111 -2.254,-0.092 -3.3817,-0.084 -1.1277,0.007 -2.2539,-0.039 -3.384,0.013 -1.2222,0.057 -2.4402,-0.121 -3.6543,-0.271 -0.5203,-0.064 -0.9851,-0.31 -1.4422,-0.55 -0.5832,-0.308 -1.1621,-0.616 -1.8,-0.802 -0.1785,-0.051 -0.3582,-0.126 -0.5132,-0.226 -1.1836,-0.77 -2.4922,-1.324 -3.6536,-2.135 -0.421,-0.294 -0.8957,-0.515 -1.3593,-0.741 -0.2078,-0.102 -0.4492,-0.128 -0.6824,-0.031 -0.0958,0.04 -0.1465,0.12 -0.0958,0.223 0.0594,0.121 0.1317,0.247 0.2301,0.336 0.841,0.768 1.8266,1.328 2.811,1.876 1.6843,0.937 3.3953,1.826 5.0886,2.747 0.4121,0.224 0.8133,0.473 1.1953,0.744 1.6875,1.198 3.3653,2.409 5.045,3.617 0.1523,0.11 0.2961,0.231 0.4543,0.355 0.0781,0.459 0.105,0.932 0.2449,1.372 0.1848,0.58 0.4519,1.134 0.6933,1.694 0.3165,0.736 0.6622,1.457 0.9532,2.201 0.1875,0.479 0.3261,0.981 0.4406,1.483 0.1875,0.824 0.327,1.66 0.5098,2.485 0.0906,0.412 0.2,0.827 0.3574,1.218 0.284,0.706 0.3758,1.454 0.5281,2.188 0.1367,0.656 -0.0723,1.303 -0.0957,1.956 -0.0066,0.166 -0.1476,0.349 -0.2703,0.482 -0.3867,0.415 -0.8164,0.785 -1.3527,0.998 -1.3719,0.545 -2.5411,1.414 -3.7,2.301 -0.2993,0.228 -0.6086,0.443 -0.9028,0.678 -1.3886,1.111 -2.4343,2.474 -3.0496,4.153 -0.0652,0.176 -0.1426,0.35 -0.1805,0.533 -0.2941,1.43 -0.7531,2.814 -1.1156,4.226 -0.1648,0.639 -0.2539,1.291 -0.2422,1.955 0.0207,1.227 0.1164,2.44 0.4504,3.63 0.4063,1.445 1.1582,2.66 2.2903,3.638 0.2527,0.219 0.4773,0.451 0.5918,0.775 0.1668,0.466 0.5117,0.79 0.9187,1.034 1.0078,0.601 1.9949,1.243 3.1074,1.654 0.3938,0.146 0.7688,0.354 1.1289,0.571 0.5703,0.346 1.1836,0.572 1.8223,0.74 0.5449,0.142 1.0938,0.274 1.6406,0.412 0.0907,0.023 0.1785,0.059 0.2703,0.081 0.1371,0.031 0.2805,0.09 0.4145,0.075 0.7652,-0.084 1.4676,0.285 2.2195,0.293 0.4231,0.004 0.8469,0.022 1.2696,0.029 0.0937,0.002 0.1914,0.007 0.2812,-0.012 0.8262,-0.175 1.6516,-0.356 2.4766,-0.535 0.6562,-0.48 1.466,-0.61 2.1789,-0.959 0.2051,-0.1 0.4031,-0.256 0.5449,-0.434 0.4727,-0.596 1.0445,-1.061 1.6492,-1.522 0.6731,-0.513 1.3684,-0.987 2.0598,-1.472 1.4234,-1.001 2.4773,-2.301 2.959,-4.003 0.2554,-0.903 0.5504,-1.792 0.8367,-2.685 0.1465,-0.455 0.1847,-0.91 0.1699,-1.388 -0.0477,-1.556 -0.2402,-3.095 -0.6531,-4.591 -0.2883,-1.046 -0.5102,-2.102 -0.7168,-3.161 -0.1098,-0.561 -0.2688,-1.089 -0.511,-1.605 -0.3613,-0.765 -0.6543,-1.56 -0.8933,-2.374 -0.0805,-0.269 -0.1938,-0.53 -0.2695,-0.802 -0.5,-1.767 -2.4575,-3.168 -4.0493,-3.263 -0.2312,-0.015 -0.4589,-0.087 -0.6882,-0.131 -0.2293,-0.043 -0.4598,-0.121 -0.6895,-0.121 -1.2687,-0.001 -2.5332,-0.133 -3.8027,-0.072 -0.6082,0.03 -1.2039,0.025 -1.8067,0.227 -0.5234,0.176 -1.1113,0.155 -1.6711,0.227 -0.5652,0.071 -0.734,-0.022 -0.9031,-0.604 -0.082,-0.284 -0.1777,-0.538 -0.4453,-0.683 -0.3164,-0.17 -0.459,-0.468 -0.5598,-0.782 -0.1289,-0.402 -0.2539,-0.809 -0.3269,-1.224 -0.2617,-1.479 -0.6321,-2.936 -0.8184,-4.432 -0.0976,-0.781 -0.3574,-1.552 -0.6164,-2.303 -0.3348,-0.974 -0.743,-1.925 -1.1082,-2.89 -0.0144,-0.038 0.0984,-0.174 0.1563,-0.177 0.1359,-0.008 0.2878,0.01 0.4089,0.067 0.5079,0.245 1.0305,0.471 1.5032,0.774 2.0632,1.319 4.2429,2.425 6.4265,3.522 1.1789,0.592 2.3039,1.276 3.4321,1.95 1.2507,0.749 2.5418,1.424 3.8113,2.139 0.6555,0.37 1.3098,0.74 1.9629,1.114 1.0246,0.587 1.9512,1.306 2.8719,2.042 0.9543,0.762 1.9503,1.475 2.9367,2.197 0.8379,0.613 1.6308,1.266 2.2246,2.135 0.8308,1.215 1.493,2.489 1.6847,3.982 0.1368,1.071 0.3653,2.125 0.7149,3.159 0.2851,0.842 0.3699,1.74 0.368,2.642 -0.0039,2.258 0.0781,4.513 0.2492,6.764 0.0281,0.372 0.1238,0.738 0.1812,1.11 0.0383,0.243 -0.1543,0.591 -0.3902,0.697 -0.8195,0.368 -1.6906,0.568 -2.5664,0.737 -0.5539,0.107 -1.1203,0.151 -1.6731,0.259 -0.2714,0.054 -0.5468,0.151 -0.7839,0.29 -0.6157,0.357 -1.1289,0.82 -1.52,1.437 -0.4043,0.637 -0.7898,1.275 -1.1121,1.959 -0.3261,0.694 -0.5461,1.403 -0.5754,2.165 -0.0242,0.661 -0.0816,1.314 -0.2214,1.96 -0.0489,0.229 -0.0645,0.467 -0.0672,0.702 -0.011,0.847 0.0066,1.694 -0.02,2.541 -0.0156,0.529 0.2219,1.015 0.2289,1.528 0.0055,0.514 -0.1105,1.029 -0.1156,1.544 -0.0086,1.19 0.4367,2.2 1.3039,3.018 1.4395,1.358 2.9383,2.641 4.6426,3.663 0.2395,0.143 0.4981,0.265 0.7606,0.359 1.2445,0.446 2.5136,0.774 3.8449,0.813 0.1875,0.006 0.3816,-0.002 0.5617,0.044 0.9617,0.248 1.8641,-0.021 2.7652,-0.302 0.1282,-0.04 0.2883,-0.113 0.3469,-0.218 0.2559,-0.467 0.7023,-0.579 1.1609,-0.705 0.3606,-0.099 0.7102,-0.238 1.0618,-0.367 0.2629,-0.098 0.5421,-0.175 0.7754,-0.324 0.5234,-0.333 1.0832,-0.556 1.6804,-0.709 0.2727,-0.069 0.5293,-0.202 0.802,-0.27 1.2176,-0.305 2.2246,-1.005 3.198,-1.744 0.7153,-0.543 1.291,-1.248 1.7746,-1.995 0.8543,-1.321 1.345,-2.783 1.4754,-4.364 0.1504,-1.81 -0.189,-3.56 -0.6324,-5.295 -0.1035,-0.401 -0.3188,-0.785 -0.5395,-1.142 -0.4675,-0.76 -0.9722,-1.496 -1.4628,-2.242 -0.2325,-0.353 -0.4579,-0.71 -0.7008,-1.056 -0.2422,-0.344 -0.4809,-0.696 -0.7617,-1.009 -0.4153,-0.461 -0.9067,-0.808 -1.5481,-0.914 -0.4141,-0.068 -0.8152,-0.217 -1.2285,-0.296 -1.4774,-0.282 -2.9492,-0.585 -4.3789,-1.067 -0.5391,-0.182 -1.0945,-0.261 -1.6668,-0.239 -0.3762,0.016 -0.7531,-0.004 -1.1289,-0.008 -0.4145,-0.004 -0.709,-0.224 -0.9426,-0.537 -0.1113,-0.15 -0.2078,-0.314 -0.2871,-0.484 -0.1191,-0.255 -0.1926,-0.533 -0.3273,-0.777 -0.4012,-0.729 -0.4903,-1.491 -0.4227,-2.317 0.0867,-1.075 -0.0281,-2.159 0.0754,-3.241 0.0496,-0.513 -0.0637,-1.039 -0.3227,-1.499 -0.2586,-0.46 -0.3828,-0.953 -0.4968,-1.461 -0.2481,-1.098 -0.5196,-2.192 -0.8055,-3.282 -0.1672,-0.635 -0.3449,-1.27 -0.686,-1.845 -0.0437,-0.074 -0.0542,-0.182 -0.0437,-0.271 0.0105,-0.086 0.05,-0.187 0.1113,-0.243 0.0606,-0.055 0.1856,-0.11 0.2461,-0.082 0.8606,0.381 1.7024,0.807 2.4824,1.333 1.5997,1.077 3.1868,2.173 4.7688,3.275 0.3055,0.213 0.5828,0.476 0.8406,0.747 1.7207,1.813 3.6328,3.419 5.5156,5.051 1.4903,1.292 3.0391,2.518 4.6844,3.619 0.9375,0.627 1.8344,1.315 2.7485,1.978 0.914,0.663 1.797,1.367 2.772,1.942 0.26,0.153 0.347,0.441 0.228,0.739 -0.194,0.479 -0.403,0.951 -0.613,1.424 -0.209,0.473 -0.442,0.935 -0.634,1.412 -0.247,0.611 -0.463,1.233 -0.694,1.849 -0.265,0.709 -0.457,1.437 -0.479,2.195 -0.058,1.889 0.027,3.773 0.568,5.592 0.401,1.348 0.809,2.702 1.504,3.942 0.256,0.457 0.551,0.875 0.922,1.242 0.234,0.232 0.503,0.44 0.691,0.705 0.598,0.837 1.486,1.118 2.422,1.283 0.74,0.13 1.49,0.257 2.239,0.273 0.937,0.022 1.876,-0.073 2.816,-0.116 1.344,-0.062 2.543,-0.639 3.777,-1.078 0.3,-0.108 0.577,-0.32 0.818,-0.537 0.354,-0.321 0.739,-0.57 1.171,-0.772 0.381,-0.178 0.733,-0.42 1.104,-0.623 1.011,-0.553 1.841,-1.3 2.465,-2.27 0.23,-0.359 0.512,-0.665 0.836,-0.948 0.317,-0.275 0.586,-0.608 0.861,-0.929 0.551,-0.642 1.078,-1.305 1.64,-1.937 0.415,-0.467 0.722,-0.983 0.885,-1.586 0.086,-0.317 0.137,-0.65 0.269,-0.947 0.339,-0.763 0.314,-1.556 0.261,-2.354 -0.009,-0.14 -0.082,-0.28 -0.075,-0.415 0.096,-1.89 -0.869,-3.43 -1.662,-5.021 -0.273,-0.545 -0.631,-1.047 -0.944,-1.572 -0.343,-0.574 -0.806,-1.044 -1.304,-1.473 -0.28,-0.24 -0.622,-0.424 -0.962,-0.574 -0.773,-0.343 -1.556,-0.664 -2.346,-0.965 -1.316,-0.502 -2.619,-1.035 -3.99,-1.381 -0.697,-0.176 -1.395,-0.2 -2.1,-0.186 -0.23,0.005 -0.468,0.057 -0.688,0.13 -0.357,0.116 -0.717,0.239 -1.049,0.411 -0.924,0.481 -1.905,0.791 -2.907,1.057 -0.542,0.144 -1.067,0.361 -1.593,0.56 -0.642,0.243 -1.117,0.681 -1.442,1.285 -0.111,0.207 -0.217,0.418 -0.35,0.611 -0.076,0.111 -0.202,0.187 -0.324,0.295 -0.523,-0.219 -1.038,-0.437 -1.555,-0.651 -0.671,-0.276 -1.197,-0.76 -1.673,-1.274 -0.743,-0.802 -1.6065,-1.443 -2.4854,-2.074 -0.8386,-0.602 -1.6796,-1.206 -2.4804,-1.856 -0.7727,-0.627 -1.6446,-1.087 -2.4883,-1.593 -0.3281,-0.197 -0.6133,-0.423 -0.8906,-0.678 -0.4832,-0.445 -0.9883,-0.868 -1.4715,-1.312 -1.177,-1.079 -2.4699,-2.034 -3.4778,-3.295 -0.3527,-0.441 -0.7785,-0.814 -1.2597,-1.122 -0.6731,-0.432 -1.3028,-0.919 -1.907,-1.448 -0.4922,-0.431 -1.0579,-0.782 -1.6094,-1.139 -0.6699,-0.434 -1.3672,-0.825 -2.0371,-1.26 -0.3918,-0.254 -0.7539,-0.554 -1.1243,-0.839 -0.0878,-0.067 -0.0734,-0.158 0.0208,-0.237 0.0347,-0.029 0.0703,-0.067 0.1121,-0.079 0.0879,-0.026 0.1816,-0.059 0.2695,-0.051 0.9375,0.086 1.8723,0.195 2.8098,0.265 0.8914,0.066 1.7839,0.113 2.6777,0.127 0.4187,0.006 0.8406,-0.076 1.2598,-0.137 0.8406,-0.124 1.6875,-0.19 2.532,-0.117 0.5234,0.045 1.0312,0.004 1.5449,-0.061 0.7,-0.088 1.4004,-0.173 2.1016,-0.249 0.1855,-0.019 0.3758,-0.01 0.5633,-0.003 0.1808,0.008 0.4562,0.261 0.4933,0.453 0.0266,0.137 0.0547,0.278 0.0488,0.415 -0.0097,0.235 0.002,0.485 -0.0769,0.699 -0.3957,1.071 -0.0371,2.068 0.3863,2.996 0.6242,1.37 1.4543,2.623 2.5129,3.72 1.0137,1.052 2.0574,2.066 3.1596,3.023 0.688,0.6 1.461,1.017 2.37,1.167 0.278,0.046 0.55,0.138 0.828,0.173 0.229,0.028 0.476,0.049 0.696,-0.006 0.609,-0.151 1.202,-0.129 1.807,0.025 0.269,0.07 0.558,0.082 0.839,0.083 0.182,0.001 0.379,-0.034 0.546,-0.107 1.725,-0.757 3.386,-1.627 4.84,-2.85 0.073,-0.059 0.156,-0.11 0.217,-0.179 1.003,-1.12 2.159,-2.1 3.013,-3.355 0.211,-0.309 0.445,-0.606 0.688,-0.893 0.214,-0.25 0.447,-0.48 0.552,-0.807 0.042,-0.132 0.101,-0.289 0.203,-0.366 0.909,-0.675 1.029,-1.768 1.397,-2.71 0.269,-0.693 0.592,-1.38 0.691,-2.14 0.09,-0.698 0.259,-1.387 0.354,-2.084 0.044,-0.32 0.033,-0.66 -0.024,-0.978 -0.131,-0.742 -0.293,-1.478 -0.465,-2.21 -0.064,-0.271 -0.145,-0.558 -0.299,-0.785 -0.789,-1.168 -1.592,-2.326 -2.652,-3.281 -0.388,-0.348 -0.798,-0.651 -1.256,-0.902 -0.576,-0.316 -1.134,-0.665 -1.71,-0.984 -0.534,-0.294 -1.075,-0.578 -1.625,-0.843 -0.207,-0.1 -0.443,-0.173 -0.672,-0.195 -1.408,-0.131 -2.777,-0.491 -4.168,-0.713 -1.032,-0.164 -2.042,-0.318 -3.077,-0.043 -0.311,0.083 -0.653,0.082 -0.979,0.07 -1.01,-0.035 -1.955,0.227 -2.883,0.578 -0.2617,0.1 -0.5351,0.21 -0.7507,0.38 -1.1055,0.872 -2.2739,1.679 -3.0317,2.92 -0.2183,0.357 -0.5367,0.654 -0.7984,0.986 -0.2949,0.375 -0.5278,0.786 -0.5532,1.274 -0.0203,0.386 -0.1558,0.726 -0.2957,1.079 -0.2265,0.574 -0.3066,1.156 -0.0996,1.784 0.1114,0.338 0.0332,0.742 0.0227,1.116 -0.0063,0.234 -0.0715,0.488 0.0816,0.683 0.3442,0.435 0.1965,0.777 -0.155,1.104 -0.1719,0.16 -0.3274,0.34 -0.5086,0.488 -0.2563,0.209 -0.5344,0.349 -0.8829,0.396 -0.6496,0.086 -1.2941,0.219 -1.9335,0.362 -0.975,0.219 -1.9629,0.207 -2.9504,0.222 -0.2344,0.003 -0.4746,-0.033 -0.7039,0.002 -1.0539,0.164 -2.0598,-0.093 -3.0532,-0.37 -0.78,-0.218 -1.5691,-0.314 -2.3687,-0.311 -0.6153,0.002 -1.2207,-0.043 -1.8274,-0.133 -0.1394,-0.021 -0.2812,-0.054 -0.4199,-0.047 -0.8625,0.046 -1.6687,-0.211 -2.4922,-0.413 -0.7898,-0.193 -1.5,-0.546 -2.1804,-0.964 -0.9211,-0.567 -1.8286,-1.157 -2.7317,-1.75 -0.3137,-0.206 -0.6101,-0.443 -0.8926,-0.691 -1.5273,-1.344 -3.2668,-2.38 -4.9914,-3.436 -0.1992,-0.122 -0.4168,-0.216 -0.6257,-0.324 -0.8782,-0.452 -1.7735,-0.872 -2.627,-1.364 -1.4246,-0.822 -2.8223,-1.693 -4.2332,-2.54 -0.3227,-0.194 -0.6484,-0.381 -0.9777,-0.564 -1.1496,-0.64 -2.3008,-1.278 -3.45,-1.917 -0.0832,-0.045 -0.1633,-0.095 -0.2422,-0.147 -1.7707,-1.157 -3.5637,-2.281 -5.3781,-3.369 -0.1204,-0.072 -0.2317,-0.166 -0.3235,-0.27 -0.0535,-0.06 -0.0973,-0.17 -0.0789,-0.24 0.0195,-0.073 0.116,-0.171 0.1856,-0.177 0.3261,-0.023 0.6562,-0.042 0.9816,-0.022 1.8355,0.115 3.6656,0.068 5.4977,-0.087 1.3125,-0.111 2.63,-0.156 3.9445,-0.242 0.289,-0.02 0.5762,-0.033 0.8176,0.133 0.3726,0.256 0.7918,0.285 1.2156,0.297 0.5703,0.014 1.123,0.091 1.664,0.397" /></g></svg>