<?xml version="1.0" encoding="UTF-8" standalone="no"?>
<!-- Created with Inkscape (http://www.inkscape.org/) -->

<svg
   xmlns:dc="http://purl.org/dc/elements/1.1/"
   xmlns:cc="http://creativecommons.org/ns#"
   xmlns:rdf="http://www.w3.org/1999/02/22-rdf-syntax-ns#"
   xmlns:svg="http://www.w3.org/2000/svg"
   xmlns="http://www.w3.org/2000/svg"
   xmlns:sodipodi="http://sodipodi.sourceforge.net/DTD/sodipodi-0.dtd"
   xmlns:inkscape="http://www.inkscape.org/namespaces/inkscape"
   version="1.1"
   id="svg2"
   xml:space="preserve"
   width="77.284294"
   height="142.88889"
   viewBox="0 0 77.284294 142.88889"
   sodipodi:docname="hoja2.svg"
   inkscape:version="0.92.5 (2060ec1f9f, 2020-04-08)"><metadata
     id="metadata8"><rdf:RDF><cc:Work
         rdf:about=""><dc:format>image/svg+xml</dc:format><dc:type
           rdf:resource="http://purl.org/dc/dcmitype/StillImage" /><dc:title></dc:title></cc:Work></rdf:RDF></metadata><defs
     id="defs6" /><sodipodi:namedview
     pagecolor="#ffffff"
     bordercolor="#666666"
     borderopacity="1"
     objecttolerance="10"
     gridtolerance="10"
     guidetolerance="10"
     inkscape:pageopacity="0"
     inkscape:pageshadow="2"
     inkscape:window-width="1150"
     inkscape:window-height="1054"
     id="namedview4"
     showgrid="false"
     inkscape:zoom="1.416"
     inkscape:cx="-80.220785"
     inkscape:cy="27.868481"
     inkscape:window-x="0"
     inkscape:window-y="0"
     inkscape:window-maximized="0"
     inkscape:current-layer="g10" /><g
     id="g10"
     inkscape:groupmode="layer"
     inkscape:label="ink_ext_XXXXXX"
     transform="matrix(1.3333333,0,0,-1.3333333,-532.06512,432.52647)"><path
       inkscape:connector-curvature="0"
       id="path50"
       style="fill:#000000;fill-opacity:1;fill-rule:nonzero;stroke:none;stroke-width:0.1"
       d="m 437.897,233.739 c 0.238,0.061 0.328,0.231 0.359,0.401 0.109,0.6 0.218,1.203 0.285,1.809 0.21,1.916 0.411,3.835 0.598,5.755 0.114,1.17 0.202,2.344 0.29,3.516 0.1,1.363 0.293,2.711 0.617,4.041 0.475,1.94 1.292,3.739 2.381,5.396 0.771,1.177 1.701,2.252 2.691,3.261 0.56,0.57 1.106,1.152 1.736,1.653 0.48,0.383 0.944,0.779 1.519,1.008 0.531,0.212 0.922,0.633 1.406,0.92 0.362,0.213 0.703,0.463 1.088,0.636 0.347,0.156 0.641,0.371 0.934,0.615 0.393,0.329 0.865,0.562 1.281,0.864 0.383,0.277 0.744,0.586 0.832,1.095 0.556,0.872 1.101,1.751 1.675,2.611 0.241,0.361 0.613,0.555 1.098,0.591 0.217,-0.633 0.343,-1.277 0.323,-1.937 -0.022,-0.705 -0.065,-1.411 -0.145,-2.11 -0.068,-0.607 -0.228,-1.203 -0.299,-1.81 -0.105,-0.903 -0.493,-1.713 -0.787,-2.554 -0.076,-0.219 -0.216,-0.417 -0.34,-0.618 -0.072,-0.119 -0.188,-0.215 -0.25,-0.34 -0.461,-0.94 -1.103,-1.738 -1.88,-2.437 -0.172,-0.153 -0.327,-0.348 -0.431,-0.554 -0.618,-1.213 -1.224,-2.433 -1.825,-3.655 -0.208,-0.42 -0.396,-0.852 -0.592,-1.28 -0.297,-0.645 -0.703,-1.213 -1.152,-1.765 -0.953,-1.172 -2.055,-2.2 -3.102,-3.28 -0.624,-0.642 -1.221,-1.302 -1.745,-2.03 -0.644,-0.892 -1.041,-1.876 -1.315,-2.938 -0.385,-1.498 -0.663,-3.021 -1.239,-4.474 -0.518,-1.312 -0.798,-2.698 -0.765,-4.135 0.025,-1.128 -0.026,-2.257 -0.035,-3.386 -0.003,-0.282 0.009,-0.565 0.039,-0.845 0.151,-1.401 0.243,-2.809 0.539,-4.192 0.078,-0.365 0.105,-0.75 0.091,-1.123 -0.031,-0.811 0.123,-1.595 0.313,-2.371 0.223,-0.907 0.33,-1.845 0.695,-2.716 0.007,-0.018 -0.136,-0.144 -0.191,-0.132 -0.129,0.025 -0.289,0.071 -0.364,0.167 -0.231,0.293 -0.449,0.602 -0.634,0.927 -0.511,0.899 -1.003,1.808 -1.501,2.715 -0.069,0.123 -0.099,0.276 -0.191,0.375 -0.658,0.708 -0.98,1.59 -1.325,2.467 -0.172,0.436 -0.384,0.859 -0.603,1.274 -0.33,0.625 -0.585,1.28 -0.844,1.936 -0.605,1.528 -1.277,3.028 -1.921,4.541 -0.165,0.389 -0.329,0.778 -0.493,1.168 -0.165,0.389 -0.3,0.796 -0.499,1.166 -0.471,0.876 -0.817,1.794 -1.065,2.755 -0.093,0.363 -0.243,0.712 -0.353,1.071 -0.11,0.358 -0.269,0.72 -0.288,1.087 -0.058,1.023 -0.643,1.739 -1.3,2.427 -0.097,0.101 -0.212,0.185 -0.319,0.277 -1.69,1.433 -3.445,2.773 -5.434,3.773 -1.052,0.529 -2.07,1.113 -3.073,1.729 -1.244,0.763 -2.547,1.414 -3.888,1.995 -0.991,0.43 -1.971,0.888 -2.947,1.349 -0.771,0.364 -1.444,0.857 -2.078,1.436 -0.762,0.696 -1.604,1.308 -2.434,1.924 -0.794,0.59 -1.565,1.205 -2.294,1.874 -0.277,0.254 -0.553,0.514 -0.851,0.74 -1.508,1.136 -2.832,2.475 -4.189,3.778 -0.305,0.292 -0.589,0.61 -0.851,0.941 -1.021,1.291 -2.205,2.446 -3.159,3.792 -0.243,0.342 -0.54,0.66 -0.633,1.088 -0.016,0.077 0,0.193 0.05,0.242 0.055,0.053 0.167,0.071 0.251,0.066 0.09,-0.007 0.178,-0.056 0.265,-0.09 0.612,-0.24 1.226,-0.473 1.836,-0.721 0.433,-0.177 0.872,-0.35 1.288,-0.564 0.923,-0.474 1.876,-0.866 2.85,-1.22 1.643,-0.598 3.171,-1.425 4.591,-2.443 0.803,-0.575 1.577,-1.191 2.357,-1.796 0.892,-0.693 1.78,-1.391 2.664,-2.093 0.369,-0.292 0.739,-0.585 1.08,-0.907 1.299,-1.229 2.588,-2.468 3.876,-3.707 0.237,-0.229 0.475,-0.461 0.677,-0.72 0.753,-0.974 1.672,-1.782 2.555,-2.628 0.476,-0.455 0.953,-0.909 1.401,-1.392 1.518,-1.641 3.307,-2.924 5.256,-3.997 0.205,-0.112 0.426,-0.195 0.645,-0.278 0.306,-0.114 0.588,0.051 0.628,0.35 0.063,0.468 0.07,0.931 -0.005,1.404 -0.224,1.396 -0.562,2.763 -1.041,4.092 -0.191,0.53 -0.341,1.062 -0.46,1.616 -0.177,0.82 -0.43,1.637 -0.802,2.401 -0.33,0.676 -0.669,1.348 -1.009,2.018 -0.299,0.587 -0.62,1.151 -1.102,1.626 -0.294,0.29 -0.509,0.676 -0.704,1.048 -0.387,0.741 -0.991,1.234 -1.705,1.622 -0.867,0.472 -1.719,0.977 -2.607,1.405 -1.268,0.613 -2.469,1.375 -3.812,1.822 -1.293,0.429 -2.572,0.897 -3.895,1.245 -1.68,0.442 -3.324,1.02 -4.931,1.687 -1.043,0.434 -1.988,1.06 -2.968,1.616 -0.335,0.191 -0.595,0.455 -0.849,0.734 -0.253,0.278 -0.471,0.613 -0.777,0.811 -0.776,0.503 -1.266,1.252 -1.803,1.961 -0.255,0.338 -0.439,0.732 -0.715,1.049 -0.726,0.84 -1.114,1.84 -1.468,2.867 -0.524,1.519 -0.841,3.077 -0.996,4.675 -0.128,1.31 -0.297,2.616 -0.449,3.924 -0.138,1.216 -0.233,2.429 -0.162,3.659 0.069,1.174 0.115,2.348 0.223,3.52 0.072,0.795 0.06,1.597 0.08,2.397 0.034,1.364 0.072,2.727 0.092,4.092 0.009,0.61 -0.006,1.223 -0.041,1.833 -0.062,1.078 -0.147,2.155 -0.218,3.232 -0.002,0.03 0.035,0.078 0.064,0.09 0.042,0.017 0.102,0.026 0.139,0.007 0.082,-0.041 0.172,-0.086 0.23,-0.154 0.393,-0.468 0.821,-0.915 1.159,-1.421 1.282,-1.915 2.598,-3.812 3.782,-5.787 1.159,-1.934 2.252,-3.914 3.167,-5.982 0.19,-0.429 0.388,-0.858 0.545,-1.3 0.299,-0.842 0.596,-1.684 0.976,-2.495 0.118,-0.254 0.2,-0.526 0.286,-0.795 0.371,-1.167 0.815,-2.305 1.327,-3.417 0.176,-0.382 0.362,-0.753 0.33,-1.208 -0.015,-0.212 0.106,-0.455 0.222,-0.652 0.694,-1.179 1.47,-2.296 2.493,-3.225 0.764,-0.697 1.493,-1.431 2.177,-2.21 0.434,-0.493 0.92,-0.946 1.424,-1.369 1.52,-1.276 2.901,-2.695 4.139,-4.232 1.504,-1.866 2.996,-3.749 4.255,-5.797 0.121,-0.197 0.228,-0.416 0.275,-0.639 0.101,-0.47 0.311,-0.883 0.534,-1.299 0.423,-0.786 0.819,-1.587 1.243,-2.374 0.244,-0.455 0.494,-0.911 0.787,-1.336 0.458,-0.663 0.808,-1.375 1.116,-2.116 0.27,-0.651 0.529,-1.317 0.891,-1.917 0.797,-1.32 1.197,-2.755 1.335,-4.269 0.087,-0.945 0.33,-1.847 0.588,-2.751 0.142,-0.497 0.242,-1.004 0.368,-1.504 0.184,-0.73 0.327,-1.473 0.574,-2.181 0.59,-1.689 1.114,-3.393 1.51,-5.138 0.082,-0.36 0.1,-0.756 0.394,-1.038 0.03,-0.029 0.089,-0.043 0.132,-0.039 0.026,0.002 0.068,0.051 0.07,0.08 0.01,0.186 0.031,0.375 0.011,0.559 -0.201,1.774 -0.418,3.546 -0.811,5.293 -0.225,1.007 -0.421,2.02 -0.516,3.053 -0.086,0.935 -0.365,1.846 -0.358,2.795 10e-4,0.137 -0.046,0.278 -0.088,0.413 -0.317,1.032 -0.585,2.083 -0.971,3.089 -0.641,1.67 -1.106,3.391 -1.627,5.096 -0.041,0.133 -0.057,0.275 -0.075,0.415 -0.149,1.128 -0.468,2.219 -0.927,3.246 -0.544,1.213 -0.857,2.487 -1.195,3.756 -0.439,1.634 -0.845,3.277 -1.254,4.919 -0.26,1.049 -0.482,2.106 -0.835,3.132 -0.984,2.844 -1.93,5.701 -3.283,8.401 -0.232,0.462 -0.433,0.94 -0.632,1.417 -0.599,1.436 -1.319,2.805 -2.147,4.124 -1.478,2.352 -2.776,4.805 -3.896,7.347 -0.38,0.86 -0.728,1.734 -0.828,2.684 -0.03,0.278 -0.124,0.549 -0.2,0.82 -0.29,1.04 -0.595,2.075 -0.871,3.118 -0.144,0.545 -0.261,1.099 -0.353,1.655 -0.271,1.623 -0.524,3.25 -0.778,4.875 -0.036,0.232 -0.044,0.469 -0.053,0.703 -0.042,0.983 -0.063,1.966 -0.185,2.945 -0.057,0.464 -0.131,0.931 -0.048,1.405 0.032,0.18 0.002,0.378 -0.037,0.56 -0.246,1.157 -0.164,2.337 -0.254,3.505 -0.022,0.28 -0.017,0.567 0.021,0.845 0.116,0.84 0.21,1.679 0.125,2.53 -0.014,0.136 0.016,0.281 0.046,0.417 0.319,1.471 0.483,2.966 0.701,4.453 0.039,0.27 0.171,0.53 0.284,0.784 0.02,0.043 0.184,0.068 0.243,0.034 0.118,-0.067 0.236,-0.165 0.308,-0.278 0.151,-0.237 0.305,-0.48 0.402,-0.742 0.345,-0.93 0.847,-1.782 1.287,-2.665 0.147,-0.294 0.294,-0.598 0.502,-0.847 0.756,-0.905 1.36,-1.916 2.053,-2.864 1.166,-1.595 2.298,-3.213 3.421,-4.838 1.181,-1.709 2.205,-3.5 3.177,-5.329 0.132,-0.249 0.281,-0.492 0.381,-0.754 0.557,-1.447 1.251,-2.838 1.733,-4.317 0.233,-0.719 0.373,-1.456 0.531,-2.191 0.069,-0.322 0.113,-0.651 0.208,-0.964 0.451,-1.492 0.688,-3.024 0.86,-4.567 0.041,-0.371 0.043,-0.752 0.011,-1.124 -0.118,-1.385 -0.551,-2.673 -1.345,-3.815 -0.575,-0.827 -0.949,-1.72 -1.163,-2.699 -0.179,-0.825 -0.427,-1.636 -0.609,-2.462 -0.08,-0.362 -0.131,-0.752 -0.091,-1.117 0.117,-1.075 0.167,-2.154 0.363,-3.224 0.353,-1.942 0.637,-3.897 0.943,-5.849 0.197,-1.255 0.456,-2.495 0.806,-3.719 0.58,-2.034 1.063,-4.096 1.746,-6.1 0.121,-0.356 0.227,-0.72 0.382,-1.061 0.574,-1.258 0.854,-2.584 0.984,-3.951 0.07,-0.753 0.263,-1.479 0.488,-2.199 0.293,-0.94 0.577,-1.884 0.88,-2.821 0.29,-0.895 0.596,-1.783 0.902,-2.673 0.06,-0.175 0.153,-0.339 0.233,-0.506 0.048,-0.099 0.133,-0.135 0.237,-0.09 0.03,0.013 0.057,0.063 0.065,0.1 0.015,0.091 0.031,0.186 0.026,0.278 -0.109,2.354 -0.019,4.702 0.216,7.046 0.037,0.373 0.07,0.752 0.051,1.126 -0.137,2.646 0.2,5.259 0.527,7.874 0.028,0.232 0.073,0.466 0.144,0.689 0.374,1.174 0.527,2.378 0.577,3.607 0.097,2.397 0.273,4.791 0.535,7.176 0.05,0.467 0.131,0.933 0.241,1.39 0.326,1.348 0.265,2.708 0.162,4.07 -0.058,0.75 -0.12,1.5 -0.195,2.248 -0.137,1.357 -0.271,2.714 -0.431,4.068 -0.226,1.915 -0.454,3.831 -0.715,5.741 -0.344,2.516 -0.636,5.041 -1.316,7.497 -0.452,1.63 -0.884,3.266 -1.515,4.841 -0.473,1.183 -0.743,2.426 -1.019,3.664 -0.082,0.37 -0.093,0.753 0.024,1.117 0.038,0.118 0.159,0.225 0.269,0.296 0.038,0.024 0.177,-0.056 0.233,-0.121 0.369,-0.43 0.646,-0.92 0.905,-1.424 0.56,-1.086 1.142,-2.161 1.718,-3.24 0.065,-0.124 0.14,-0.245 0.223,-0.359 1.721,-2.366 2.952,-5.026 4.492,-7.502 0.222,-0.355 0.38,-0.757 0.521,-1.153 0.413,-1.153 0.87,-2.284 1.454,-3.363 0.496,-0.917 0.769,-1.922 1.055,-2.914 0.536,-1.85 1.031,-3.713 1.539,-5.572 0.1,-0.362 0.211,-0.724 0.269,-1.093 0.243,-1.58 0.489,-3.159 0.69,-4.744 0.088,-0.697 0.065,-1.409 0.102,-2.113 0.044,-0.845 0.074,-1.692 0.157,-2.534 0.064,-0.658 0.093,-1.313 0.054,-1.972 -0.094,-1.551 -0.237,-3.096 -0.554,-4.62 -0.009,-0.046 -0.009,-0.094 -0.023,-0.139 -0.563,-1.749 -1.169,-3.479 -2.317,-4.954 -0.583,-0.749 -1.311,-1.345 -2.053,-1.928 -0.738,-0.582 -1.463,-1.181 -2.183,-1.785 -0.779,-0.653 -1.282,-1.478 -1.58,-2.454 -0.64,-2.095 -0.926,-4.215 -0.693,-6.406 0.205,-1.92 0.219,-3.852 0.173,-5.781 -0.009,-0.374 -0.06,-0.752 -0.142,-1.118 -0.429,-1.916 -0.388,-3.822 0.023,-5.738 0.345,-1.608 0.624,-3.231 0.947,-4.845 0.13,-0.642 0.296,-1.278 0.661,-1.83" /></g></svg>